<svg xmlns="http://www.w3.org/2000/svg" xmlns:xlink="http://www.w3.org/1999/xlink" width="83" height="83" viewBox="0 0 83 83">
  <defs>
    <style>
      .cls-1 {
        fill: #fcd505;
      }

      .cls-2 {
        filter: url(#Rectangle_22);
      }
    </style>
    <filter id="Rectangle_22" x="0" y="0" width="83" height="83" filterUnits="userSpaceOnUse">
      <feOffset dy="3" input="SourceAlpha"/>
      <feGaussianBlur stdDeviation="3" result="blur"/>
      <feFlood flood-opacity="0.161"/>
      <feComposite operator="in" in2="blur"/>
      <feComposite in="SourceGraphic"/>
    </filter>
  </defs>
  <g id="Group_35" data-name="Group 35" transform="translate(-669 -613)">
    <g class="cls-2" transform="matrix(1, 0, 0, 1, 669, 613)">
      <rect id="Rectangle_22-2" data-name="Rectangle 22" class="cls-1" width="65" height="65" rx="11" transform="translate(9 6)"/>
    </g>
    <g id="layer1" transform="translate(640.781 602.462)">
      <path id="path1577" d="M66.175,28.539c-2.093-.04-1.075,2.771-3.024,3.534s-3.112-1.99-4.62-.538,1.2,2.719.361,4.637-3.607.794-3.647,2.886,2.771,1.075,3.534,3.024-1.99,3.112-.538,4.62,2.719-1.2,4.637-.361.794,3.607,2.886,3.647,1.075-2.771,3.024-3.534,3.112,1.99,4.62.538-1.2-2.719-.361-4.637,3.607-.794,3.647-2.887-2.77-1.075-3.534-3.024,1.99-3.112.538-4.62-2.719,1.2-4.637.361S68.268,28.579,66.175,28.539Zm-.2,5.218a5.507,5.507,0,1,1-5.506,5.507,5.507,5.507,0,0,1,5.506-5.507Zm17.041,5.087C80.648,38.8,81.8,41.972,79.6,42.834s-3.514-2.246-5.217-.608,1.354,3.07.408,5.236-4.073.9-4.118,3.259,3.128,1.214,3.991,3.414-2.246,3.514-.608,5.216,3.07-1.353,5.236-.408.9,4.073,3.259,4.118,1.214-3.128,3.414-3.991,3.514,2.246,5.216.608-1.353-3.07-.408-5.236,4.073-.9,4.118-3.259-3.128-1.214-3.99-3.414,2.246-3.514.608-5.216-3.07,1.354-5.236.408S85.374,38.889,83.011,38.844ZM54.56,43.819c-2.363-.045-1.214,3.128-3.414,3.991s-3.514-2.246-5.216-.608,1.353,3.07.408,5.236-4.073.9-4.118,3.259,3.128,1.214,3.991,3.414-2.246,3.514-.608,5.216,3.07-1.353,5.236-.407.9,4.073,3.259,4.118,1.214-3.128,3.414-3.991,3.513,2.246,5.216.608-1.353-3.07-.407-5.236,4.073-.9,4.118-3.259-3.128-1.214-3.99-3.414,2.246-3.514.608-5.216-3.07,1.354-5.236.408S56.923,43.864,54.56,43.819Zm28.22.917a6.217,6.217,0,1,1-6.217,6.217,6.217,6.217,0,0,1,6.217-6.217ZM54.329,49.711a6.217,6.217,0,1,1-6.217,6.217,6.217,6.217,0,0,1,6.217-6.217Z"/>
    </g>
  </g>
</svg>
